<svg id="svg" xmlns="http://www.w3.org/2000/svg" xmlns:xlink="http://www.w3.org/1999/xlink" width="400" height="400" viewBox="0, 0, 400,400"><g id="svgg"><path id="path0" d="M87.109 192.992 C 87.109 325.087,87.207 358.193,87.598 357.969 C 87.866 357.814,101.665 348.542,118.262 337.364 L 148.438 317.040 148.438 252.113 L 148.438 187.186 149.512 186.799 C 150.103 186.586,161.704 182.274,175.293 177.216 L 200.000 168.019 224.707 177.216 C 238.296 182.274,249.897 186.586,250.488 186.799 L 251.563 187.186 251.563 252.113 L 251.563 317.040 281.738 337.364 C 298.335 348.542,312.134 357.814,312.402 357.969 C 312.793 358.193,312.891 325.087,312.891 192.992 L 312.891 27.734 282.228 27.734 L 251.565 27.734 251.466 92.730 L 251.367 157.725 225.684 149.950 L 200.000 142.174 174.316 149.950 L 148.633 157.725 148.534 92.730 L 148.435 27.734 117.772 27.734 L 87.109 27.734 87.109 192.992 " stroke="none" fill="#000000" fill-rule="evenodd"></path></g></svg>